<?xml version="1.0" encoding="UTF-8" standalone="no"?>
<!-- Created with Inkscape (http://www.inkscape.org/) -->

<svg
   width="76.35968mm"
   height="20.703476mm"
   viewBox="0 0 76.35968 20.703476"
   version="1.1"
   id="svg5"
   xml:space="preserve"
   xmlns="http://www.w3.org/2000/svg"
   xmlns:svg="http://www.w3.org/2000/svg"><defs
     id="defs2" /><g
     id="layer1"
     transform="translate(447.2364,-246.70713)"><g
       id="g5459"
       transform="matrix(0.22116958,0,0,0.22116958,-348.32132,208.26752)"><g
         id="g5450"><path
           style="fill:#84b0b3;fill-opacity:1;stroke-width:0.169888"
           d="m -419.2446,213.3079 c -0.88767,-0.0706 -2.79891,-0.21688 -4.2472,-0.32497 -1.4483,-0.1081 -3.62712,-0.27171 -4.84182,-0.36359 -1.2147,-0.0919 -2.9828,-0.16724 -3.9291,-0.16746 l -1.72055,-4.1e-4 -0.2162,-0.2605 -0.21619,-0.26049 0.11407,-2.5002 c 0.0627,-1.3751 0.1931,-3.34113 0.28971,-4.36896 l 0.17564,-1.86877 0.23995,-0.52374 c 0.13198,-0.28806 0.60557,-0.86358 1.05243,-1.27895 l 0.81248,-0.75521 1.10427,-0.54575 c 0.60735,-0.30017 1.54759,-0.66115 2.08942,-0.80218 l 0.98515,-0.25643 1.56317,-0.003 c 0.85975,-0.001 2.63347,-0.0729 3.94162,-0.15888 1.30814,-0.086 3.90742,-0.20503 5.7762,-0.26452 1.86877,-0.0595 4.39161,-0.17893 5.60631,-0.26543 1.2147,-0.0865 3.24062,-0.16078 4.50204,-0.16509 1.26142,-0.004 3.09482,-0.0741 4.07422,-0.1552 l 1.78074,-0.14738 0.27709,0.1483 c 0.15241,0.0816 0.361,0.36145 0.46353,0.62198 0.10254,0.26053 0.30415,0.94342 0.44803,1.51753 l 0.26158,1.04386 v 2.71447 2.71448 l -0.42661,1.33832 c -0.23463,0.73608 -0.71244,1.89707 -1.0618,2.57999 -0.34935,0.68292 -0.79107,1.38825 -0.98158,1.56739 l -0.34639,0.32573 -1.86216,0.26563 c -1.02419,0.1461 -2.39731,0.3427 -3.05137,0.43689 l -1.18922,0.17126 -4.92676,0.0596 c -2.70972,0.0328 -5.65303,0.002 -6.5407,-0.0688 z"
           id="path4166" /><path
           style="fill:#dd8a46;fill-opacity:1;stroke-width:0.169888"
           d="m -420.51876,195.71929 -0.67956,-0.2385 -0.60636,-0.67587 -0.60637,-0.67586 -0.2006,-0.66955 c -0.11033,-0.36825 -0.19997,-0.92826 -0.19919,-1.24445 6.4e-4,-0.3162 0.12048,-1.41585 0.266,-2.44367 0.14553,-1.02782 0.32788,-2.36569 0.40522,-2.97304 0.0773,-0.60735 0.23682,-1.83055 0.35438,-2.71821 0.11757,-0.88767 0.28797,-1.70951 0.37867,-1.8263 l 0.16492,-0.21236 h 9.90901 9.90902 l 0.41825,0.55214 0.41825,0.55213 0.28844,0.99901 0.28844,0.999 -0.0142,3.50304 c -0.008,1.92666 -0.0866,4.06658 -0.17507,4.75538 -0.0885,0.6888 -0.23006,1.32152 -0.31459,1.40604 l -0.15368,0.15369 -3.29987,0.16287 c -1.81492,0.0896 -4.06435,0.20312 -4.99874,0.25231 -0.93439,0.0492 -3.18965,0.16694 -5.01171,0.26165 -1.82205,0.0947 -3.88619,0.20525 -4.58698,0.24563 l -1.27416,0.0734 z"
           id="path338" /><path
           style="fill:#333333;fill-opacity:1;stroke-width:0.169888"
           d="m -370.02254,258.76304 c -0.44552,-0.21832 -0.96926,-0.57907 -1.16386,-0.80166 -0.19461,-0.22259 -0.5151,-0.7459 -0.7122,-1.16289 l -0.35836,-0.75819 0.008,-1.75387 0.008,-1.75386 0.19766,-0.19767 c 0.10872,-0.10872 0.19767,-0.31935 0.19767,-0.46807 0,-0.14872 0.26363,-0.5499 0.58585,-0.89152 0.32222,-0.34161 0.83825,-0.75569 1.14674,-0.92018 l 0.5609,-0.29908 1.01933,5.1e-4 1.01933,5.1e-4 0.71526,0.37457 c 0.39339,0.20602 0.75424,0.37457 0.80189,0.37457 0.0476,0 0.10804,-0.97473 0.13418,-2.16607 l 0.0475,-2.16598 0.65947,-0.0541 0.65947,-0.0541 0.16029,0.16028 0.16029,0.1603 -0.008,6.0612 c -0.004,3.33366 -0.0531,6.13361 -0.10776,6.22211 -0.0547,0.0885 -0.32284,0.16091 -0.59586,0.16091 h -0.4964 l -0.1066,-0.42472 -0.1066,-0.42473 h -0.23641 c -0.13003,0 -0.23642,0.0709 -0.23642,0.15756 0,0.0867 -0.41573,0.35422 -0.92386,0.5946 l -0.92387,0.43706 -0.6476,-0.005 -0.6476,-0.005 -0.81003,-0.39695 z m 3.4633,-1.95088 0.65956,-0.65957 v -1.89686 -1.89687 l -0.42613,-0.39492 -0.42613,-0.39493 -0.75441,-0.21122 -0.7544,-0.21121 -0.54978,0.19166 c -0.30239,0.10541 -0.69486,0.32293 -0.87216,0.48339 -0.1773,0.16045 -0.43072,0.55108 -0.56317,0.86806 l -0.24081,0.57633 v 1.16048 1.16046 l 0.20194,0.4752 c 0.11107,0.26135 0.39295,0.68541 0.6264,0.94238 l 0.42445,0.46719 h 1.00753 1.00754 z m 6.33204,2.0237 -0.69833,-0.31075 -0.32928,-0.48421 c -0.18111,-0.26633 -0.43471,-0.71358 -0.56355,-0.9939 l -0.23427,-0.50966 -0.0728,-3.07029 -0.0728,-3.07029 0.285,-0.28501 0.28499,-0.285 h 0.47673 0.47673 l 0.17954,0.21633 0.17953,0.21634 0.0536,3.08463 0.0536,3.08463 0.35698,0.47905 0.35698,0.47905 0.87442,0.0514 0.87442,0.0513 0.59105,-0.45081 c 0.32508,-0.24795 0.70746,-0.68416 0.84974,-0.96936 l 0.25868,-0.51853 v -2.77705 -2.77706 l 0.12741,-0.0217 c 0.0701,-0.0119 0.31854,-0.0415 0.55214,-0.0657 0.2336,-0.0242 0.55851,0.0265 0.72203,0.11261 l 0.2973,0.15664 v 4.33642 4.33643 l -0.63567,-0.0527 -0.63567,-0.0527 -0.0603,-0.33978 c -0.0332,-0.18688 -0.11578,-0.39878 -0.1835,-0.4709 l -0.12313,-0.13112 -0.41252,0.36372 c -0.22689,0.20004 -0.74377,0.50751 -1.14863,0.68326 l -0.73611,0.31954 -0.62299,-0.012 -0.623,-0.012 -0.69833,-0.31074 z m 10.22749,0.0675 c -0.36528,-0.13384 -0.91933,-0.43798 -1.23123,-0.67586 l -0.56707,-0.43253 -0.35514,-0.77959 c -0.19533,-0.42876 -0.43029,-1.2622 -0.52212,-1.85207 l -0.16697,-1.0725 0.26605,-1.0385 0.26605,-1.0385 0.50346,-0.73174 0.50346,-0.73176 0.77621,-0.36487 0.77621,-0.36486 0.9721,-0.0851 0.97212,-0.0851 0.84944,0.31069 0.84944,0.31069 0.0548,0.56363 c 0.0302,0.31 -0.008,0.62538 -0.0849,0.70085 l -0.13979,0.13722 -0.97087,-0.22704 -0.97088,-0.22705 -0.72801,0.16304 -0.728,0.16305 -0.44184,0.42234 -0.44183,0.42234 -0.21127,0.94399 -0.21125,0.94399 0.20422,1.08233 0.20422,1.08234 0.43301,0.433 c 0.23815,0.23816 0.60618,0.47648 0.81784,0.5296 0.21166,0.0531 0.86861,0.0561 1.45991,0.007 0.5913,-0.0495 1.30443,-0.11361 1.58475,-0.1425 l 0.50967,-0.0525 0.0532,0.37349 c 0.0292,0.20541 -0.0279,0.52482 -0.12685,0.7098 l -0.17999,0.33632 -0.91863,0.26705 c -0.50524,0.14688 -1.25088,0.26167 -1.65697,0.25508 -0.40609,-0.007 -1.03721,-0.12147 -1.40248,-0.25531 z m 6.99644,0.0342 c -0.25477,-0.113 -0.69557,-0.42806 -0.97956,-0.70014 l -0.51635,-0.49468 -0.18324,-0.6805 -0.18324,-0.68052 0.1089,-0.68099 0.10889,-0.681 0.42561,-0.55802 c 0.23409,-0.30689 0.67012,-0.68484 0.96897,-0.83985 l 0.54335,-0.28186 1.64678,-0.08 1.64677,-0.08 0.0787,-0.20517 c 0.0433,-0.11284 0.0258,-0.46381 -0.0389,-0.77994 l -0.11756,-0.57477 -0.63497,-0.24167 -0.63498,-0.24167 -1.31276,0.27986 c -0.72201,0.15393 -1.42738,0.29874 -1.5675,0.32184 l -0.25474,0.042 -0.0566,-0.39953 c -0.0311,-0.21974 -0.0148,-0.56629 0.0364,-0.77013 l 0.093,-0.3706 0.76496,-0.20459 c 0.42072,-0.11253 1.18405,-0.25385 1.69626,-0.31405 l 0.93131,-0.10946 0.90054,0.29443 0.90054,0.29443 0.46019,0.51521 0.4602,0.51521 0.1004,0.69925 c 0.0552,0.3846 0.0775,2.07537 0.0494,3.75726 l -0.0509,3.05798 -0.5533,0.0534 -0.5533,0.0533 -0.0838,-0.26568 c -0.0461,-0.14613 -0.12422,-0.3924 -0.17365,-0.54726 l -0.0899,-0.28158 -0.35948,0.38585 c -0.19771,0.21222 -0.67331,0.52838 -1.05687,0.70257 l -0.6974,0.31671 -0.67955,-0.0101 c -0.37375,-0.006 -0.888,-0.10252 -1.14277,-0.21551 z m 3.04432,-2.03622 0.62239,-0.57039 0.0122,-0.83119 0.0122,-0.8312 -1.45127,0.0139 -1.45128,0.0139 -0.37502,0.3211 -0.37502,0.32111 v 0.75584 0.75583 l 0.28116,0.31068 0.28117,0.31068 h 0.91054 0.91055 l 0.62239,-0.57038 z m 16.57974,1.91097 -0.88597,-0.34058 -0.64302,-0.73401 -0.64302,-0.73402 -0.21236,-0.6977 -0.21236,-0.6977 v -1.19457 -1.19457 l 0.21236,-0.69769 0.21236,-0.6977 0.65674,-0.74962 0.65675,-0.74961 0.58483,-0.24436 c 0.32165,-0.13438 0.95217,-0.29307 1.40116,-0.35264 l 0.81634,-0.10829 0.91969,0.26737 0.91971,0.26736 0.70678,0.60499 0.7068,0.60499 0.35044,0.93664 0.35045,0.93667 v 1.17646 1.17647 l -0.35045,0.93665 -0.35044,0.93666 -0.68869,0.5895 -0.68869,0.58949 -0.77496,0.26405 c -0.42622,0.14524 -1.08624,0.26007 -1.46671,0.2552 l -0.69176,-0.009 z m 3.25265,-1.89272 0.54885,-0.55215 0.2058,-1.0547 0.2058,-1.0547 -0.2538,-0.97191 -0.2538,-0.97192 -0.40615,-0.40615 -0.40615,-0.40615 -0.62136,-0.14014 -0.62136,-0.14014 -0.61358,0.13839 -0.61357,0.13838 -0.45475,0.43568 -0.45476,0.43568 -0.20583,0.76959 c -0.11321,0.42328 -0.20584,1.02244 -0.20584,1.3315 0,0.30905 0.12151,0.91849 0.27001,1.35433 l 0.27,0.79243 0.50753,0.42705 0.50753,0.42706 h 1.02328 1.02328 z m -13.65846,1.78356 -0.58883,-0.29704 -0.34556,-0.5946 -0.34556,-0.59461 v -2.84556 -2.84555 l -0.25482,-0.0259 c -0.14016,-0.0143 -0.33129,-0.0437 -0.42473,-0.0654 -0.0934,-0.0217 -0.30367,-0.0483 -0.46719,-0.0591 l -0.2973,-0.0196 v -0.40392 c 0,-0.22216 0.0956,-0.47919 0.21236,-0.57119 0.1168,-0.092 0.42587,-0.2183 0.68683,-0.2807 0.26095,-0.0624 0.50587,-0.20672 0.54426,-0.32073 0.0384,-0.11401 0.1947,-0.65123 0.34736,-1.19381 l 0.27757,-0.98652 0.53728,0.0521 0.53727,0.0521 0.0849,1.10427 0.0849,1.10428 0.67955,-0.0257 0.67956,-0.0257 0.21236,0.17388 0.21236,0.17391 v 0.46805 0.46806 l -0.24688,0.20489 -0.24686,0.20488 -0.64505,-0.0567 -0.64504,-0.0566 -0.0488,2.46339 c -0.0268,1.35485 -0.01,2.62228 0.0384,2.8165 l 0.0872,0.35312 0.44152,0.20117 c 0.24284,0.11064 0.51066,0.15844 0.59517,0.10621 0.0845,-0.0522 0.30813,-0.0123 0.49693,0.0888 l 0.34329,0.18372 v 0.46971 c 0,0.25834 -0.0917,0.56145 -0.20386,0.67358 l -0.20387,0.20386 -0.77299,-3.4e-4 -0.77299,-3.4e-4 -0.58883,-0.29703 z m -47.45813,0.0175 -0.11636,-0.11636 v -5.89698 -5.89697 l 0.23399,-0.19421 0.234,-0.1942 3.54602,0.046 3.54602,0.046 0.0516,0.80282 0.0516,0.80282 -2.85477,0.0466 -2.85476,0.0466 v 1.75762 1.75762 l 2.37843,10e-4 2.37843,0.001 0.29731,0.15806 0.2973,0.15806 -0.003,0.46122 c -10e-4,0.25367 -0.062,0.55464 -0.1345,0.66883 l -0.13191,0.20762 -2.54123,0.0472 -2.54123,0.0473 v 1.86877 1.86877 l 2.97304,0.0951 c 1.63518,0.0523 2.99677,0.10967 3.02577,0.12742 0.029,0.0177 0.029,0.31895 0,0.66935 l -0.0527,0.63707 -3.83354,0.0456 -3.83353,0.0456 z m 51.99069,0.005 -0.12124,-0.12125 v -3.55467 -3.55467 l -0.50967,-0.44723 c -0.28032,-0.24596 -0.50966,-0.54035 -0.50966,-0.65419 0,-0.11384 0.0956,-0.2661 0.21236,-0.33837 0.1168,-0.0723 0.5898,-0.14826 1.05112,-0.16887 l 0.83877,-0.0375 0.31088,0.16638 0.31088,0.16637 -0.0454,4.28215 -0.0454,4.28214 -0.68572,0.0505 c -0.37714,0.0277 -0.74028,-0.004 -0.80697,-0.0708 z m 13.46981,-4.30039 v -4.40565 l 0.31584,-0.10024 c 0.17372,-0.0552 0.44514,-0.0507 0.60315,0.01 l 0.28731,0.11025 0.0976,0.48821 c 0.0537,0.26852 0.11863,0.48822 0.14428,0.48822 0.0256,0 0.4375,-0.26304 0.91522,-0.58452 l 0.86857,-0.5845 0.73204,-0.10978 0.73204,-0.10978 0.70222,0.18909 0.70222,0.18909 0.5235,0.44049 c 0.28791,0.24227 0.6544,0.67985 0.81441,0.97239 l 0.29093,0.5319 3.4e-4,3.39776 3.4e-4,3.39777 h -0.84945 -0.84943 l -0.0849,-3.28548 -0.0849,-3.28547 -0.47666,-0.4096 -0.47666,-0.40959 h -0.67852 -0.67852 l -0.49244,0.25466 c -0.27085,0.14006 -0.68753,0.5104 -0.92595,0.823 l -0.43363,0.56835 v 2.91454 2.91454 h -0.84944 -0.84945 z m -13.93083,-7.0419 v -0.76152 l 0.30574,-0.097 c 0.16815,-0.0534 0.55636,-0.0679 0.86267,-0.0322 0.30632,0.0356 0.633,0.14091 0.72597,0.23388 l 0.16902,0.16902 -0.0548,0.57374 -0.0548,0.57374 -0.97686,0.0509 -0.97685,0.051 z m -48.07838,-7.72749 c -0.32704,-0.0715 -0.8795,-0.26652 -1.2277,-0.4334 -0.3482,-0.16689 -0.90186,-0.60092 -1.23036,-0.96453 -0.32849,-0.3636 -0.74488,-0.98646 -0.9253,-1.38411 -0.18043,-0.39766 -0.41038,-1.12814 -0.511,-1.62329 -0.10063,-0.49515 -0.18023,-1.37433 -0.17691,-1.95372 0.003,-0.57939 0.10952,-1.47391 0.23599,-1.98782 0.12647,-0.51392 0.30827,-1.12551 0.40401,-1.35911 0.0957,-0.23358 0.3657,-0.67977 0.59992,-0.99151 0.23421,-0.31173 0.71862,-0.77356 1.07646,-1.02627 0.35783,-0.2527 0.92362,-0.5519 1.25728,-0.66489 l 0.60668,-0.20543 1.34704,0.003 1.34704,0.003 0.61621,0.21469 c 0.33891,0.11809 0.91767,0.42363 1.28614,0.67898 0.36848,0.25535 0.81855,0.67361 1.00018,0.92948 0.18163,0.25587 0.41698,0.65634 0.52301,0.88994 0.10603,0.2336 0.29605,0.69229 0.42228,1.01933 l 0.2295,0.59461 v 1.95371 1.95372 l -0.24625,0.7645 c -0.13545,0.42047 -0.41307,1.0353 -0.61694,1.36629 -0.20388,0.33099 -0.65017,0.84719 -0.99176,1.14711 -0.34159,0.29992 -0.90492,0.66631 -1.25183,0.81419 l -0.63076,0.26889 -1.27416,0.0618 c -0.70079,0.034 -1.54174,0.003 -1.86877,-0.0682 z m 3.32314,-1.99135 c 0.27464,-0.17605 0.57679,-0.39752 0.67144,-0.49218 0.0946,-0.0947 0.29066,-0.36321 0.43557,-0.59681 0.14492,-0.23359 0.36132,-0.84519 0.48089,-1.3591 l 0.21741,-0.93438 -0.0844,-1.27417 c -0.0464,-0.70079 -0.13606,-1.50351 -0.19919,-1.78383 -0.0631,-0.28031 -0.32028,-0.81193 -0.57146,-1.18138 l -0.45668,-0.67171 -0.55028,-0.32138 -0.55029,-0.32139 -1.1792,-0.007 -1.1792,-0.007 -0.59958,0.28452 -0.59957,0.28452 -0.40159,0.54608 c -0.22088,0.30034 -0.50202,0.80054 -0.62477,1.11154 l -0.22317,0.56549 0.006,1.89789 0.006,1.89791 0.34563,0.78864 0.34562,0.78864 0.60729,0.48552 c 0.33401,0.26704 0.77985,0.53978 0.99075,0.6061 0.2109,0.0663 0.88503,0.0967 1.49806,0.0674 l 1.11459,-0.0531 0.49935,-0.32008 z m 12.67009,2.02632 -0.401,-0.0859 -0.71835,-0.71836 -0.71835,-0.71835 -0.10455,-0.64424 c -0.0575,-0.35433 -0.0575,-0.88471 -1.2e-4,-1.17862 0.0574,-0.2939 0.22591,-0.7255 0.37438,-0.95909 0.14848,-0.2336 0.42288,-0.55539 0.6098,-0.71509 0.18691,-0.1597 0.67837,-0.40816 1.09214,-0.55214 l 0.75228,-0.26177 h 1.35056 1.35055 l -0.11322,-0.7081 -0.11324,-0.70811 -0.29073,-0.22087 -0.29072,-0.22088 -1.10428,-0.003 -1.10428,-0.003 -0.7333,0.25542 c -0.40332,0.14047 -0.80469,0.2113 -0.89192,0.15737 -0.0872,-0.0539 -0.1586,-0.35912 -0.1586,-0.67825 v -0.58021 l 0.55213,-0.28994 0.55214,-0.28992 1.78383,-0.0118 1.78383,-0.0118 0.60526,0.37644 c 0.3329,0.20704 0.68973,0.55107 0.79297,0.7645 0.10323,0.21343 0.27045,0.64792 0.37159,0.96554 l 0.18389,0.57749 v 2.99866 2.99866 l -0.20386,0.20386 c -0.11213,0.11213 -0.38135,0.20387 -0.59826,0.20387 h -0.39438 l -0.20065,-0.46719 c -0.11035,-0.25696 -0.21832,-0.49399 -0.23993,-0.52673 -0.0216,-0.0327 -0.33352,0.17694 -0.69315,0.46594 l -0.65386,0.52546 -1.01381,0.0729 c -0.55759,0.0401 -1.19425,0.0342 -1.41479,-0.013 z m 2.43642,-1.80506 0.67633,-0.38305 0.21734,-0.42113 0.21735,-0.42112 -0.0442,-0.67955 -0.0442,-0.67956 h -1.30458 -1.30459 l -0.47924,0.35687 -0.47925,0.35688 -0.051,0.77083 -0.051,0.77083 0.45616,0.35882 0.45616,0.35881 0.52923,-0.003 0.52923,-0.003 z m 7.50384,1.80443 c -0.26628,-0.0454 -0.72498,-0.2166 -1.01933,-0.38045 -0.29436,-0.16386 -0.7806,-0.61867 -1.08053,-1.0107 -0.29994,-0.39203 -0.62442,-0.99753 -0.72108,-1.34557 -0.0967,-0.34803 -0.17617,-1.22373 -0.17669,-1.94598 l -0.001,-1.3132 0.27994,-0.72546 c 0.15397,-0.39901 0.5171,-0.98045 0.80697,-1.2921 0.28986,-0.31164 0.75637,-0.69208 1.03669,-0.84541 l 0.50966,-0.27878 1.63858,-0.004 1.63857,-0.004 0.35761,0.32363 0.35762,0.32363 v 0.56828 0.56828 h -0.4147 c -0.22808,0 -0.46194,-0.0764 -0.51969,-0.16989 l -0.10499,-0.1699 -1.05178,6.5e-4 -1.05178,6.5e-4 -0.53926,0.32881 -0.53927,0.32882 -0.29526,0.62222 -0.29526,0.62222 0.008,1.21785 0.008,1.21785 0.31777,0.67487 0.31777,0.67486 0.59385,0.29039 c 0.32663,0.15971 0.84967,0.29405 1.16232,0.29854 0.31266,0.005 0.98924,-0.11416 1.50351,-0.26366 l 0.93504,-0.27183 0.16619,0.16618 0.16619,0.16619 -0.0557,0.47958 -0.0557,0.47958 -0.51788,0.30125 -0.51787,0.30124 -1.18101,0.074 c -0.64955,0.0407 -1.39886,0.0369 -1.66514,-0.009 z m 12.06025,-0.001 c -0.26726,-0.0449 -0.80241,-0.25725 -1.18921,-0.47193 l -0.70328,-0.39031 -0.43714,-0.65839 c -0.24044,-0.36212 -0.52712,-0.97306 -0.63709,-1.35766 l -0.19993,-0.69933 0.003,-1.16951 0.003,-1.16951 0.21195,-0.59461 c 0.11657,-0.32703 0.36198,-0.8443 0.54535,-1.14948 0.18337,-0.30517 0.6411,-0.76207 1.01718,-1.01532 l 0.68378,-0.46045 1.529,-0.004 1.52899,-0.004 0.63859,0.39704 0.63858,0.39703 0.44989,0.76767 0.44988,0.76767 0.0818,1.27414 0.0818,1.27413 -0.23586,0.14936 -0.23584,0.14936 -2.7796,0.003 -2.77959,0.003 0.11529,0.63707 0.11529,0.63709 0.45575,0.45908 0.45576,0.45908 0.79353,0.20964 0.79353,0.20965 1.07524,-0.26655 c 0.59139,-0.14662 1.18992,-0.29464 1.33007,-0.32895 l 0.25484,-0.0624 0.0518,0.71284 0.0518,0.71284 -0.48168,0.24909 -0.48167,0.24908 -1.35394,0.0834 c -0.74467,0.0459 -1.57262,0.0467 -1.83989,0.002 z m 2.77944,-6.1483 v -0.65639 l -0.44788,-0.44789 -0.44789,-0.44789 h -0.9172 -0.9172 l -0.44191,0.28956 -0.44193,0.28956 -0.23165,0.55442 c -0.12741,0.30494 -0.23165,0.67157 -0.23165,0.81472 v 0.26029 h 2.03866 2.03865 z m 22.17042,6.10745 c -0.28031,-0.0779 -0.70552,-0.22034 -0.9449,-0.31659 -0.23938,-0.0963 -0.67912,-0.45279 -0.97722,-0.7923 -0.29809,-0.33951 -0.66466,-0.90112 -0.8146,-1.24804 l -0.2726,-0.63076 -0.005,-1.61394 -0.005,-1.61393 0.38114,-0.80498 0.38114,-0.80497 0.5746,-0.50451 0.57462,-0.50452 0.72425,-0.19661 0.72425,-0.19662 1.17408,0.0969 1.17407,0.0969 0.60494,0.48962 0.60494,0.48962 0.36538,0.74967 0.36537,0.74966 0.10001,1.14431 0.10001,1.14431 -0.32198,0.17232 -0.32199,0.17232 h -2.72938 -2.72938 v 0.23409 c 0,0.12875 0.10836,0.49344 0.2408,0.81042 0.13245,0.31698 0.3819,0.70402 0.55434,0.86007 0.17243,0.15605 0.66721,0.37833 1.09949,0.49395 l 0.78597,0.21021 1.16555,-0.2631 c 0.64105,-0.14471 1.28022,-0.29208 1.42038,-0.32751 l 0.25484,-0.0644 0.0519,0.71579 0.052,0.71579 -0.61811,0.25827 -0.61811,0.25825 -1.3026,0.0809 -1.30259,0.0809 -0.50967,-0.14158 z m 2.97305,-5.88696 c 0,-0.23974 -0.0854,-0.60288 -0.18978,-0.80697 -0.10437,-0.20409 -0.35283,-0.50316 -0.55214,-0.6646 l -0.36236,-0.29353 -0.869,-0.004 -0.869,-0.004 -0.45103,0.35477 c -0.24806,0.19513 -0.56417,0.57358 -0.70247,0.84101 -0.13828,0.26742 -0.25143,0.6047 -0.25143,0.7495 v 0.26326 h 2.1236 2.12361 v -0.43589 z m -57.08246,1.37959 v -4.51135 h 0.59137 0.59137 l 0.10305,0.46719 c 0.0567,0.25696 0.11882,0.53461 0.13811,0.61701 0.0193,0.0824 0.2993,-0.0924 0.62223,-0.3885 0.32292,-0.29606 0.74857,-0.57935 0.94588,-0.62952 0.19731,-0.0502 0.61778,-0.0665 0.93438,-0.0362 l 0.57565,0.055 0.0541,0.56323 0.0541,0.56324 -0.20229,0.24373 -0.20228,0.24374 h -0.55089 -0.5509 l -0.44425,0.34944 c -0.24434,0.1922 -0.55916,0.59356 -0.69961,0.89192 l -0.25536,0.54246 -0.0453,2.71822 -0.0453,2.71821 -0.80697,0.0517 -0.80696,0.0518 z m 22.7084,4.37947 c -0.0623,-0.0623 -0.11326,-2.60957 -0.11326,-5.66062 v -5.54737 l -0.42472,-0.36929 c -0.2336,-0.2031 -0.42472,-0.4751 -0.42472,-0.60443 0,-0.12934 0.11479,-0.33043 0.25508,-0.44687 l 0.2551,-0.2117 0.93393,0.0774 c 0.51366,0.0426 0.97871,0.12224 1.03344,0.17697 0.0548,0.0547 0.0965,2.80064 0.0928,6.10201 -0.004,3.30138 -0.0102,6.1363 -0.0144,6.29981 l -0.008,0.29732 h -0.73619 c -0.4049,0 -0.78714,-0.051 -0.84944,-0.11326 z m 16.95293,-0.10007 c -0.045,-0.11733 -0.0617,-2.8879 -0.0371,-6.15683 l 0.0447,-5.94349 0.50967,-0.095 c 0.28031,-0.0523 0.64307,-0.0632 0.80611,-0.0245 l 0.29645,0.0705 1.1476,1.72176 c 0.63118,0.94697 1.18742,1.75999 1.23608,1.80671 0.0487,0.0468 0.88961,1.29357 1.86877,2.77077 l 1.7803,2.68582 0.0849,-4.46965 0.0849,-4.46965 h 0.84944 0.84944 v 6.11599 6.11598 l -0.77884,0.0506 -0.77884,0.0507 -3.04365,-4.53794 -3.04364,-4.53794 -0.092,4.4873 c -0.0506,2.46802 -0.10797,4.50642 -0.12742,4.52978 -0.0195,0.0234 -0.38179,0.0424 -0.8052,0.0424 h -0.76983 z m 19.92453,0.11177 c -0.0559,-0.0559 -0.0551,-0.22787 0.002,-0.38224 0.0568,-0.15438 0.15286,-0.31893 0.21341,-0.36564 0.0606,-0.0467 0.69409,-0.91695 1.40786,-1.93384 l 1.29774,-1.8489 -0.14928,-0.2747 c -0.0821,-0.15109 -0.56898,-0.84808 -1.08194,-1.54887 -0.51297,-0.70078 -1.09793,-1.4835 -1.29992,-1.73935 l -0.36724,-0.46519 0.10623,-0.17189 0.10623,-0.17189 h 0.82945 0.82945 l 1.04891,1.51614 1.04891,1.51613 0.20174,-0.0774 c 0.11095,-0.0426 0.34229,-0.32348 0.51409,-0.62422 0.1718,-0.30075 0.60982,-0.94818 0.97337,-1.43873 l 0.66102,-0.89191 h 0.75899 0.75899 v 0.25743 c 0,0.14159 -0.39962,0.81053 -0.88805,1.48652 -0.48844,0.676 -0.94714,1.25458 -1.01933,1.28572 -0.0722,0.0311 -0.13128,0.13377 -0.13128,0.22804 0,0.0943 -0.15282,0.36569 -0.33961,0.60315 l -0.3396,0.43174 0.37311,0.61438 c 0.20521,0.33791 0.42019,0.65261 0.47772,0.69933 0.0575,0.0467 0.57571,0.76426 1.15149,1.59453 l 1.04688,1.50957 -0.0907,0.14684 -0.0908,0.14683 h -0.83048 -0.83048 l -1.15569,-1.69283 c -0.63562,-0.93105 -1.1939,-1.6948 -1.24062,-1.6972 -0.0467,-0.003 -0.6146,0.75936 -1.26196,1.69282 l -1.17702,1.69721 h -0.70591 c -0.38825,0 -0.75161,-0.0457 -0.80746,-0.10156 z m 11.13838,-0.23135 -0.54389,-0.33161 -0.26308,-0.50874 -0.26308,-0.50874 v -2.80562 -2.80561 l -0.31744,-0.16989 c -0.17459,-0.0934 -0.35996,-0.12738 -0.41192,-0.0754 -0.0519,0.0519 -0.25758,0.0427 -0.45693,-0.0206 l -0.36246,-0.11504 0.0523,-0.43791 0.0523,-0.43792 0.69048,-0.25066 0.69047,-0.25066 0.30273,-1.17516 0.30273,-1.17515 0.53579,0.052 0.53579,0.052 0.0849,1.10428 0.0849,1.10427 0.76117,0.0541 c 0.41864,0.0298 0.85822,0.13471 0.97686,0.23316 0.11862,0.0985 0.21569,0.35809 0.21569,0.57696 v 0.39794 l -0.2973,0.15712 c -0.16352,0.0864 -0.58413,0.13367 -0.93469,0.105 l -0.63737,-0.0521 -0.0978,0.38987 c -0.0538,0.21443 -0.0728,1.46591 -0.0422,2.78107 l 0.0557,2.3912 0.19519,0.19471 0.19519,0.1947 0.69225,0.0353 c 0.38073,0.0195 0.74415,0.0872 0.80758,0.15068 0.0634,0.0634 0.10883,0.34475 0.10085,0.62514 -0.008,0.28039 -0.0623,0.58726 -0.12089,0.68195 l -0.10639,0.17215 -0.96683,-6.4e-4 -0.96683,-6.5e-4 -0.54389,-0.33162 z m -74.63167,-24.7427 c -0.32704,-0.0385 -0.90041,-0.15595 -1.27416,-0.26093 -0.37375,-0.10497 -1.02358,-0.31074 -1.44405,-0.45727 -0.42047,-0.14654 -1.10853,-0.4521 -1.529,-0.67903 -0.42047,-0.22695 -1.01407,-0.59881 -1.3191,-0.82637 -0.30504,-0.22758 -0.91004,-0.77217 -1.34445,-1.2102 -0.4344,-0.43804 -1.064,-1.2187 -1.3991,-1.7348 -0.3351,-0.51609 -0.75221,-1.28059 -0.92691,-1.69888 -0.17471,-0.4183 -0.38083,-0.91342 -0.45806,-1.1003 -0.0772,-0.18688 -0.25411,-0.76026 -0.3931,-1.27416 -0.13898,-0.51392 -0.33423,-1.34158 -0.43387,-1.83926 l -0.18116,-0.90488 v -3.11701 -3.11701 l 0.18116,-0.90487 c 0.0996,-0.49768 0.29489,-1.32535 0.43387,-1.83926 0.13899,-0.51392 0.31515,-1.08729 0.39147,-1.27416 0.0763,-0.18688 0.35428,-0.79848 0.61769,-1.35911 0.26341,-0.56063 0.68672,-1.32513 0.9407,-1.69888 0.25398,-0.37376 0.81793,-1.04267 1.25321,-1.48648 0.43528,-0.4438 1.03481,-0.98839 1.33229,-1.21019 0.29747,-0.22181 0.88489,-0.58896 1.30536,-0.8159 0.42047,-0.22693 1.10853,-0.53249 1.529,-0.67903 0.42047,-0.14653 1.0703,-0.3523 1.44405,-0.45725 0.37375,-0.10497 1.4302,-0.26869 2.34766,-0.36384 l 1.6681,-0.17301 1.55977,0.17867 c 0.85788,0.0983 1.94202,0.26327 2.40922,0.36668 0.46719,0.10342 1.56304,0.52571 2.43523,0.93842 l 1.58579,0.7504 1.23296,1.22093 1.23295,1.22093 0.57902,0.93819 c 0.31846,0.516 0.70974,1.20405 0.86951,1.52899 0.15977,0.32494 0.44912,1.09459 0.64301,1.71031 0.19389,0.61573 0.4345,1.53313 0.5347,2.03866 l 0.18218,0.91916 0.0836,2.97304 0.0836,2.97305 -0.20499,1.18922 c -0.11274,0.65407 -0.31522,1.60969 -0.44996,2.1236 -0.13473,0.51391 -0.4299,1.40688 -0.65593,1.98438 -0.22602,0.5775 -0.69047,1.49489 -1.03211,2.03866 -0.34163,0.54377 -1.01301,1.39702 -1.49196,1.89612 -0.47895,0.4991 -1.29128,1.19198 -1.8052,1.53974 -0.51391,0.34776 -1.3486,0.80713 -1.85488,1.02081 -0.50627,0.21368 -1.30899,0.49832 -1.78383,0.63252 l -0.86333,0.24401 -2.71821,0.0629 c -1.49501,0.0345 -2.98578,0.0313 -3.31282,-0.007 z m 5.52137,-4.81341 c 0.18687,-0.0807 0.64493,-0.28151 1.01789,-0.44629 l 0.67811,-0.2996 0.94252,-0.94941 0.94252,-0.94942 0.42827,-0.93438 c 0.23555,-0.51391 0.51148,-1.24019 0.61316,-1.61394 0.1017,-0.37375 0.2691,-1.04379 0.37201,-1.48896 l 0.18711,-0.80941 v -2.70294 -2.70281 l -0.18346,-0.90488 c -0.10091,-0.49768 -0.26766,-1.21067 -0.37056,-1.58443 -0.10291,-0.37375 -0.40991,-1.13142 -0.68222,-1.68372 l -0.49511,-1.00417 -0.879,-0.8646 c -0.48344,-0.47553 -1.14508,-0.98767 -1.47029,-1.13808 -0.3252,-0.15042 -0.81319,-0.37977 -1.08441,-0.50967 l -0.49311,-0.23618 -2.39499,0.004 -2.39498,0.004 -1.10427,0.54191 c -0.60735,0.29806 -1.36328,0.78774 -1.67982,1.08818 -0.31656,0.30045 -0.86422,0.99289 -1.21704,1.53875 l -0.64147,0.99249 -0.26052,0.88827 c -0.14329,0.48854 -0.35725,1.30873 -0.47546,1.82264 l -0.21495,0.93439 0.0166,2.80315 0.0166,2.80316 0.25533,1.10427 c 0.14043,0.60736 0.3836,1.4483 0.54039,1.86878 0.15678,0.42047 0.32713,0.89828 0.37856,1.0618 0.0514,0.16352 0.16104,0.2973 0.24357,0.2973 0.0825,0 0.15008,0.10274 0.15008,0.22832 0,0.12557 0.38275,0.62752 0.85057,1.11544 l 0.85056,0.88712 1.07896,0.48922 1.07896,0.48923 1.25588,0.1387 1.25588,0.1387 1.27416,-0.1353 c 0.70079,-0.0744 1.42706,-0.20131 1.61394,-0.28199 z m 15.45486,4.19785 c -0.0455,-0.11931 -0.063,-6.71515 -0.0389,-14.65742 l 0.0438,-14.44051 2.41648,-0.0471 2.41648,-0.0471 0.47162,0.65107 c 0.25939,0.35809 3.33848,4.94881 6.84243,10.20161 l 6.37081,9.55054 0.0849,-10.15451 0.0849,-10.1545 h 2.63326 2.63327 l 0.0467,14.27062 c 0.0257,7.84884 0.005,14.44263 -0.0457,14.65287 l -0.0925,0.38224 h -2.44659 -2.44658 l -1.50008,-2.22085 c -0.82504,-1.22147 -1.65298,-2.46666 -1.83986,-2.76709 -0.18688,-0.30044 -0.72203,-1.11673 -1.18922,-1.814 -0.46719,-0.69726 -0.88766,-1.30597 -0.93438,-1.35269 -0.0468,-0.0468 -0.46719,-0.65544 -0.93439,-1.3527 -0.46719,-0.69726 -1.00234,-1.51228 -1.18921,-1.81116 -0.18688,-0.29887 -1.58741,-2.40413 -3.11228,-4.67833 -1.52488,-2.27422 -2.84303,-4.16022 -2.92922,-4.19112 l -0.15672,-0.0562 -0.0439,10.07958 -0.0439,10.07958 -2.50944,0.047 -2.50943,0.047 z m 29.76622,-0.15077 c -0.0519,-0.19875 -0.097,-6.69739 -0.1,-14.44141 -0.003,-7.74402 0.0386,-14.19493 0.0925,-14.33536 l 0.098,-0.25533 h 9.20676 9.20676 l 0.20386,0.20386 0.20387,0.20387 v 1.80847 1.80846 l -0.31069,0.28116 -0.31068,0.28116 h -6.48485 -6.48485 v 3.82037 3.82036 l 6.15846,0.0446 6.15844,0.0446 0.0475,2.05615 0.0475,2.05616 -0.23214,0.19266 -0.23214,0.19266 -5.98065,0.0447 -5.98065,0.0447 2e-5,3.90743 v 3.90744 l 6.74486,0.0444 6.74486,0.0444 0.23242,0.19289 0.23242,0.19289 -0.0475,2.05616 -0.0475,2.05615 -9.53604,0.0439 -9.53603,0.0438 z"
           id="path2947" /><path
           style="fill:#82a279;fill-opacity:1;stroke-width:0.169888"
           d="m -430.11745,229.95086 c -2.28924,-0.0711 -5.99705,-0.21446 -8.23958,-0.31854 -2.24252,-0.1041 -5.10164,-0.26885 -6.3536,-0.36611 -1.25194,-0.0973 -2.34657,-0.2203 -2.43248,-0.2734 -0.0859,-0.0531 -0.11847,-0.19491 -0.0723,-0.31515 0.0462,-0.12024 0.24306,-1.20191 0.43762,-2.40373 0.19455,-1.20181 0.42492,-2.60558 0.51195,-3.11949 0.087,-0.51393 0.28366,-1.6989 0.43699,-2.63329 0.15332,-0.93438 0.35541,-2.10453 0.44909,-2.60032 l 0.17032,-0.90146 0.45318,-0.17774 c 0.24924,-0.0977 1.56169,-0.32033 2.91654,-0.49462 l 2.46338,-0.31688 6.03103,-0.10595 6.03104,-0.10594 6.5407,0.18468 c 3.59738,0.10158 8.60484,0.29412 11.12768,0.42787 2.52284,0.13375 5.12213,0.29696 5.7762,0.36268 l 1.18922,0.1195 0.2973,0.25895 0.29731,0.25897 v 4.05775 4.05776 l -0.32748,0.6419 c -0.18011,0.35304 -0.62017,0.90426 -0.97791,1.22492 -0.35774,0.32067 -1.03221,0.74546 -1.49883,0.944 -0.46661,0.19853 -1.11595,0.44198 -1.44299,0.54099 -0.32704,0.099 -1.24443,0.30395 -2.03866,0.45543 -0.79423,0.15148 -1.8263,0.35434 -2.29349,0.4508 l -0.84945,0.17537 -7.22025,0.0502 c -3.97113,0.0276 -9.09326,-0.008 -11.38251,-0.0791 z"
           id="path610" /></g><path
         style="fill:#333333;stroke-width:0.700542"
         d="m -254.22027,257.73224 c -1.66285,-0.3523 -4.07339,-1.28952 -5.35671,-2.08268 -1.28336,-0.79311 -2.89535,-2.29975 -3.58219,-3.34801 -0.81704,-1.24695 -1.35317,-3.72537 -1.55066,-7.16823 -0.16602,-2.89426 0.0432,-6.53829 0.46459,-8.09782 0.42157,-1.55957 1.6839,-3.7145 2.80518,-4.78873 1.28753,-1.23355 4.88998,-2.94901 9.77725,-4.65583 4.25618,-1.48646 8.66477,-3.18164 9.7968,-3.76702 1.13206,-0.58542 2.25411,-1.57468 2.49345,-2.19841 0.23935,-0.6237 0.43517,-2.34342 0.43517,-3.82159 0,-1.47817 -0.19593,-3.19789 -0.43517,-3.82161 -0.23936,-0.6237 -1.32705,-1.59523 -2.41711,-2.15893 -1.10675,-0.57231 -3.87722,-1.02491 -6.27388,-1.02491 -3.80965,0 -4.52204,0.23009 -6.33969,2.04775 -1.12625,1.12626 -2.04774,2.70248 -2.04774,3.50273 0,1.31125 -0.41514,1.45497 -4.20326,1.45497 h -4.20326 v -3.04885 c 0,-1.99048 0.54752,-3.87515 1.57725,-5.42921 0.87716,-1.32383 3.08656,-3.12878 4.97774,-4.06655 2.2873,-1.13418 5.04513,-1.79172 8.4244,-2.00859 2.76316,-0.1774 6.83123,0.0527 9.04014,0.51135 2.3696,0.49192 4.91586,1.59078 6.21052,2.68016 1.20689,1.0155 2.77302,3.12042 3.48033,4.67754 1.13251,2.49318 1.2842,4.79648 1.27066,19.29393 -0.0104,12.07655 -0.2694,17.17504 -0.96883,19.13618 -0.5244,1.47035 -1.49797,3.27507 -2.16344,4.01042 -0.66552,0.73538 -2.54212,1.9819 -4.17022,2.77005 -1.93313,0.93584 -4.87846,1.53875 -8.48907,1.73772 -3.04089,0.16761 -6.88941,0.0159 -8.55225,-0.33583 z m 12.00135,-7.81777 c 0.84161,-0.44823 1.9142,-1.31515 2.38355,-1.92649 0.55102,-0.71766 0.86131,-3.90621 0.87569,-8.99857 0.0211,-7.31646 -0.0664,-7.83602 -1.20365,-7.1817 -0.6743,0.38797 -3.98514,1.68173 -7.35749,2.875 -3.99931,1.41516 -6.61814,2.78828 -7.53084,3.94858 -0.92172,1.1718 -1.39932,2.84102 -1.39932,4.89081 0,2.50537 0.39912,3.51095 2.04774,5.15962 1.81881,1.81879 2.52885,2.04771 6.35093,2.04771 2.36678,0 4.99179,-0.36672 5.83339,-0.81496 z m 20.09457,-29.30838 v -37.82936 h 3.85297 3.85299 v 37.82936 37.82933 h -3.85299 -3.85297 z m 24.6925,36.51246 c -2.02371,-0.69912 -4.34152,-1.87025 -5.15064,-2.60251 -0.80917,-0.73228 -1.91179,-2.18342 -2.45028,-3.22477 -0.7805,-1.50928 -0.97911,-6.58981 -0.97911,-25.04605 v -23.15271 h 4.20327 4.20325 v 20.97067 c 0,11.6575 0.29776,21.75385 0.67046,22.73411 0.36875,0.96987 1.68028,2.2856 2.91451,2.92386 1.61404,0.83466 3.42172,1.07524 6.4391,0.85699 3.64332,-0.26345 4.45781,-0.59749 6.19257,-2.53904 l 1.99749,-2.23558 V 224.448 203.09251 h 4.20327 4.20325 l -0.008,21.54168 c -0.006,11.84795 -0.20785,22.75341 -0.45257,24.23439 -0.29498,1.78539 -1.27517,3.49904 -2.90903,5.08582 -1.42996,1.38879 -3.93944,2.83126 -5.97943,3.43706 -1.93345,0.57419 -5.74365,1.03365 -8.46712,1.02108 -2.90628,-0.0133 -6.47172,-0.54795 -8.63126,-1.294 z m 34.15313,-21.12304 c 0,-18.02945 0.1999,-22.91823 1.01691,-24.87373 0.55933,-1.33861 1.8991,-3.21635 2.97731,-4.17271 1.07821,-0.95638 3.515,-2.21535 5.41512,-2.79771 1.90011,-0.58237 5.78689,-1.05885 8.63732,-1.05885 h 5.18258 l -0.49519,2.27674 c -0.27234,1.25224 -0.76247,2.98608 -1.08914,3.853 -0.49803,1.32169 -1.11699,1.57621 -3.83299,1.57621 -1.78147,0 -4.28929,0.49838 -5.57291,1.1075 -1.46123,0.69341 -2.61404,1.91121 -3.08319,3.25699 -0.46621,1.33739 -0.74931,9.91784 -0.74931,22.71097 v 20.5615 h -4.20325 -4.20326 z m 37.63142,21.72174 c -1.4574,-0.36878 -3.569,-1.14583 -4.69246,-1.72677 -1.12346,-0.58098 -2.88321,-2.15837 -3.91058,-3.50532 -1.43083,-1.8759 -1.95331,-3.51228 -2.23269,-6.99266 -0.21976,-2.737 -0.002,-5.83986 0.54802,-7.8036 0.51834,-1.85131 1.86996,-4.20315 3.12797,-5.44274 1.61508,-1.59136 4.62286,-3.01051 11.10185,-5.23804 6.3808,-2.1938 9.2787,-3.5538 10.27716,-4.82314 0.77335,-0.98316 1.39058,-2.83466 1.39058,-4.17133 0,-1.3219 -0.32459,-3.00999 -0.72131,-3.75127 -0.39672,-0.74125 -1.64205,-1.82391 -2.76738,-2.40583 -1.12534,-0.58194 -3.6536,-1.05808 -5.61836,-1.05808 -1.96477,0 -4.4944,0.47683 -5.62141,1.05965 -1.31547,0.68025 -2.25853,1.87157 -2.63411,3.32758 l -0.58504,2.26793 -4.3365,0.20864 -4.33655,0.20864 0.0104,-2.66046 c 0.006,-1.46326 0.71565,-3.90295 1.57621,-5.4215 1.05647,-1.86421 2.69623,-3.34325 5.04831,-4.55353 3.05545,-1.57219 4.34695,-1.79251 10.50814,-1.79251 5.14243,0 7.91936,0.34524 10.3642,1.28849 2.06604,0.79713 4.0697,2.24567 5.25405,3.79845 l 1.91446,2.50996 v 19.66975 c 0,17.65046 -0.12708,19.85676 -1.2378,21.49135 -0.68078,1.00187 -2.79954,2.67163 -4.70835,3.71051 -2.75908,1.50169 -4.65959,1.94915 -9.27035,2.18269 -3.18991,0.16151 -6.99221,-0.008 -8.44961,-0.37673 z m 13.29402,-8.67698 1.96556,-1.68917 0.23592,-8.13607 0.2359,-8.13605 -2.33746,1.02448 c -1.28563,0.56346 -4.57767,1.84262 -7.31568,2.84255 -2.73801,0.99993 -5.61264,2.51711 -6.38808,3.37153 -0.77546,0.85443 -1.59993,2.3608 -1.83222,3.34751 -0.2322,0.98673 -0.10196,2.95431 0.2896,4.3724 0.45186,1.63651 1.40425,2.95418 2.60717,3.60714 1.06382,0.57747 3.79874,1.04105 6.23453,1.05681 3.59973,0.0238 4.67434,-0.25974 6.3049,-1.66113 z"
         id="path488" /><rect
         style="fill:#4d4d4d;stroke-width:0.187061;stroke-linecap:round;stroke-linejoin:round;stroke-miterlimit:0.6"
         id="rect542"
         width="7.599905"
         height="93.609093"
         x="-283.89835"
         y="173.80153"
         ry="3.7999525" /></g></g></svg>
